<svg width="32" height="32" viewBox="0 0 32 32" fill="none" xmlns="http://www.w3.org/2000/svg">
    <path fill-rule="evenodd" clip-rule="evenodd" d="M11.901 21.7884H19.0825C19.6238 21.7884 20.0726 21.339 20.0726 20.7971C20.0726 20.2552 19.6238 19.8191 19.0825 19.8191H11.901C11.3598 19.8191 10.9109 20.2552 10.9109 20.7971C10.9109 21.339 11.3598 21.7884 11.901 21.7884ZM16.3631 13.2107H11.901C11.3598 13.2107 10.9109 13.66 10.9109 14.2019C10.9109 14.7438 11.3598 15.18 11.901 15.18H16.3631C16.9043 15.18 17.3532 14.7438 17.3532 14.2019C17.3532 13.66 16.9043 13.2107 16.3631 13.2107ZM25.7841 12.055C26.0944 12.0514 26.4323 12.0476 26.7393 12.0476C27.0693 12.0476 27.3334 12.3119 27.3334 12.6423V23.2686C27.3334 26.5464 24.6799 29.203 21.406 29.203H10.8977C7.46537 29.203 4.66669 26.4142 4.66669 22.9779V8.73016C4.66669 5.45239 7.33335 2.76938 10.6205 2.76938H17.67C18.0132 2.76938 18.2772 3.04693 18.2772 3.37735V7.63316C18.2772 10.0518 20.2706 12.0344 22.6865 12.0476C23.2508 12.0476 23.7483 12.0518 24.1836 12.0554C24.5223 12.0583 24.8234 12.0608 25.0891 12.0608C25.2771 12.0608 25.5206 12.058 25.7841 12.055ZM26.1481 10.1259C25.063 10.1298 23.7838 10.1259 22.8637 10.1166C21.4036 10.1166 20.2009 8.91255 20.2009 7.45077V3.96682C20.2009 3.39718 20.8914 3.11434 21.2861 3.52538C22.0013 4.26988 22.9844 5.29355 23.9627 6.31224C24.9365 7.32625 25.9055 8.33533 26.6009 9.05925C26.9864 9.45972 26.7039 10.1245 26.1481 10.1259Z" fill="white"/>
</svg>
