<svg width="36" height="36" viewBox="0 0 36 36" fill="none" xmlns="http://www.w3.org/2000/svg">
    <path d="M9.01686 20.7844C9.02068 20.8606 9.00895 20.9368 8.98239 21.0083C8.95584 21.0798 8.91501 21.1452 8.86239 21.2004C8.80977 21.2557 8.74647 21.2996 8.67632 21.3297C8.60617 21.3597 8.53066 21.3751 8.45436 21.375H2.24998C1.99607 21.3754 1.74948 21.2899 1.55034 21.1323C1.35119 20.9748 1.21119 20.7545 1.15311 20.5073C1.11694 20.3382 1.11861 20.1631 1.15799 19.9946C1.19738 19.8261 1.2735 19.6684 1.38092 19.5328C2.37347 18.2165 3.69039 17.1801 5.20311 16.5248C4.53898 15.9193 4.0296 15.1635 3.71765 14.3206C3.40571 13.4777 3.30026 12.5724 3.41016 11.6804C3.52006 10.7884 3.84209 9.93571 4.34929 9.19376C4.85649 8.45181 5.53409 7.8422 6.32534 7.41598C7.11659 6.98975 7.99845 6.75933 8.89706 6.74401C9.79567 6.72869 10.6849 6.92892 11.4902 7.32792C12.2955 7.72692 12.9935 8.31308 13.5257 9.0373C14.0579 9.76153 14.4088 10.6027 14.549 11.4905C14.5672 11.6098 14.5458 11.7319 14.4881 11.838C14.4305 11.9441 14.3398 12.0285 14.2298 12.0783C12.6694 12.7997 11.348 13.9523 10.4213 15.4002C9.49463 16.8482 9.00146 18.5309 8.99999 20.25C8.99999 20.43 8.99999 20.6072 9.01686 20.7844ZM34.6106 19.5314C33.6204 18.2167 32.3064 17.1808 30.7969 16.5248C31.461 15.9193 31.9704 15.1635 32.2823 14.3206C32.5943 13.4777 32.6997 12.5724 32.5898 11.6804C32.4799 10.7884 32.1579 9.93571 31.6507 9.19376C31.1435 8.45181 30.4659 7.8422 29.6746 7.41598C28.8834 6.98975 28.0015 6.75933 27.1029 6.74401C26.2043 6.72869 25.3151 6.92892 24.5098 7.32792C23.7045 7.72692 23.0065 8.31308 22.4743 9.0373C21.9421 9.76153 21.5912 10.6027 21.4509 11.4905C21.4328 11.6098 21.4542 11.7319 21.5118 11.838C21.5694 11.9441 21.6602 12.0285 21.7701 12.0783C23.3305 12.7997 24.652 13.9523 25.5787 15.4002C26.5053 16.8482 26.9985 18.5309 27 20.25C27 20.43 27 20.6072 26.9831 20.7844C26.9793 20.8606 26.991 20.9368 27.0176 21.0083C27.0441 21.0798 27.085 21.1452 27.1376 21.2004C27.1902 21.2557 27.2535 21.2996 27.3237 21.3297C27.3938 21.3597 27.4693 21.3751 27.5456 21.375H33.75C34.0039 21.3754 34.2505 21.2899 34.4496 21.1323C34.6488 20.9748 34.7888 20.7545 34.8469 20.5073C34.8833 20.3378 34.8816 20.1624 34.8419 19.9936C34.8023 19.8248 34.7257 19.667 34.6176 19.5314H34.6106ZM22.095 25.6036C23.2151 24.7457 24.0383 23.5584 24.4488 22.2086C24.8593 20.8587 24.8365 19.4141 24.3836 18.0779C23.9307 16.7417 23.0705 15.5809 21.9238 14.7588C20.7772 13.9367 19.4017 13.4946 17.9908 13.4946C16.5799 13.4946 15.2045 13.9367 14.0578 14.7588C12.9112 15.5809 12.051 16.7417 11.5981 18.0779C11.1452 19.4141 11.1224 20.8587 11.5329 22.2086C11.9434 23.5584 12.7666 24.7457 13.8867 25.6036C11.899 26.4648 10.2393 27.9398 9.15045 29.8125C9.0517 29.9835 8.99972 30.1776 8.99973 30.3751C8.99974 30.5726 9.05175 30.7666 9.15052 30.9376C9.24929 31.1086 9.39134 31.2507 9.5624 31.3494C9.73345 31.4481 9.92748 31.5 10.125 31.5H25.875C26.0725 31.5 26.2665 31.4481 26.4376 31.3494C26.6086 31.2507 26.7507 31.1086 26.8495 30.9376C26.9482 30.7666 27.0002 30.5726 27.0002 30.3751C27.0002 30.1776 26.9483 29.9835 26.8495 29.8125C25.7584 27.9386 24.0955 26.4635 22.1048 25.6036H22.095Z" fill="white"/>
</svg>
