<svg width="32" height="32" viewBox="0 0 32 32" fill="none" xmlns="http://www.w3.org/2000/svg">
    <path fill-rule="evenodd" clip-rule="evenodd" d="M14.2725 4.78571C13.3787 4.78571 12.6183 5.40138 12.4049 6.23119H19.5818C19.3684 5.40138 18.608 4.78571 17.7142 4.78571H14.2725ZM21.6095 6.23119H24.2508C27.0522 6.23119 29.3334 8.51986 29.3334 11.3305C29.3334 11.3305 29.2533 12.5203 29.2266 14.1773C29.224 14.3085 29.1599 14.4369 29.0545 14.5146C28.4129 14.9843 27.8259 15.3725 27.7726 15.3993C25.5581 16.8715 22.9848 17.9074 20.2435 18.4227C20.0647 18.4575 19.8886 18.3652 19.7979 18.2072C19.0295 16.8876 17.5942 16.0283 15.9934 16.0283C14.4032 16.0283 12.9545 16.8782 12.1634 18.1992C12.0714 18.3544 11.898 18.4441 11.7205 18.4107C9.00185 17.894 6.42857 16.8594 4.22747 15.4126L2.94683 14.5293C2.84011 14.4624 2.77341 14.3419 2.77341 14.2081C2.73339 13.5255 2.66669 11.3305 2.66669 11.3305C2.66669 8.51986 4.94783 6.23119 7.74923 6.23119H10.3772C10.6307 4.2905 12.2715 2.77811 14.2725 2.77811H17.7142C19.7152 2.77811 21.356 4.2905 21.6095 6.23119ZM28.8798 17.0724L28.8264 17.0992C26.1318 18.8926 22.8901 20.0838 19.4884 20.579C19.0082 20.6459 18.528 20.3381 18.3946 19.8563C18.1011 18.7588 17.1539 18.036 16.02 18.036H16.0067H15.98C14.8461 18.036 13.899 18.7588 13.6055 19.8563C13.4721 20.3381 12.9918 20.6459 12.5116 20.579C9.10991 20.0838 5.86829 18.8926 3.17361 17.0992C3.16027 17.0858 3.02687 17.0055 2.92015 17.0724C2.80009 17.1393 2.80009 17.2999 2.80009 17.2999L2.89347 24.1258C2.89347 26.9364 5.16127 29.2117 7.96267 29.2117H24.024C26.8254 29.2117 29.0932 26.9364 29.0932 24.1258L29.2 17.2999C29.2 17.2999 29.2 17.1393 29.0799 17.0724C29.0132 17.0322 28.9332 17.0456 28.8798 17.0724ZM16.9938 22.6803C16.9938 23.2424 16.5536 23.6841 15.9934 23.6841C15.4464 23.6841 14.9928 23.2424 14.9928 22.6803V20.9538C14.9928 20.405 15.4464 19.95 15.9934 19.95C16.5536 19.95 16.9938 20.405 16.9938 20.9538V22.6803Z" fill="white"/>
</svg>
