<svg width="32" height="32" viewBox="0 0 32 32" fill="none" xmlns="http://www.w3.org/2000/svg">
    <path fill-rule="evenodd" clip-rule="evenodd" d="M9.77384 2.78738H22.2258C26.7605 2.78738 29.3205 5.3369 29.3338 9.83194V22.1764C29.3338 26.6701 26.7605 29.221 22.2258 29.221H9.77384C5.23918 29.221 2.66718 26.6701 2.66718 22.1764V9.83194C2.66718 5.3369 5.23918 2.78738 9.77384 2.78738ZM16.0658 23.7492C16.6405 23.7492 17.1192 23.3263 17.1725 22.758V9.29005C17.2258 8.88033 17.0272 8.46929 16.6672 8.24592C16.2925 8.02124 15.8392 8.02124 15.4805 8.24592C15.1192 8.46929 14.9205 8.88033 14.9592 9.29005V22.758C15.0272 23.3263 15.5058 23.7492 16.0658 23.7492ZM22.2005 23.7492C22.7605 23.7492 23.2392 23.3263 23.3072 22.758V18.4229C23.3458 17.9986 23.1472 17.6034 22.7858 17.3787C22.4272 17.154 21.9738 17.154 21.6005 17.3787C21.2392 17.6034 21.0405 17.9986 21.0938 18.4229V22.758C21.1472 23.3263 21.6258 23.7492 22.2005 23.7492ZM10.9592 22.758C10.9058 23.3263 10.4272 23.7492 9.85251 23.7492C9.27918 23.7492 8.79918 23.3263 8.74718 22.758V13.6252C8.70718 13.2141 8.90584 12.8057 9.26718 12.581C9.62584 12.3563 10.0805 12.3563 10.4405 12.581C10.7992 12.8057 11.0005 13.2141 10.9592 13.6252V22.758Z" fill="white"/>
</svg>
