<svg width="200" height="200" viewBox="0 0 200 200" fill="none" xmlns="http://www.w3.org/2000/svg">
    <path d="M100 200C44.7246 200 0 155.209 0 100C0 44.7246 44.791 0 100 0C155.275 0 200 44.791 200 100C200.066 155.275 155.275 200 100 200Z" fill="#FEE8A0"/>
    <mask id="mask0_768_43" style="mask-type:alpha" maskUnits="userSpaceOnUse" x="0" y="0" width="201" height="200">
        <path d="M100 200C44.7246 200 0 155.209 0 100C0 44.7246 44.791 0 100 0C155.275 0 200 44.791 200 100C200.066 155.275 155.275 200 100 200Z" fill="#F7C0B5"/>
    </mask>
    <g mask="url(#mask0_768_43)">
        <path d="M156 184.205C155.533 184.538 155 184.871 154.533 185.205C154 185.538 153.533 185.871 153 186.138C152.533 186.405 152.133 186.671 151.667 186.938C151.6 187.005 151.533 187.005 151.467 187.071C149.933 188.005 148.333 188.871 146.733 189.671C146.267 189.938 145.733 190.205 145.267 190.405C145.267 190.405 145.2 190.471 145.133 190.471C144.6 190.738 144.067 191.005 143.533 191.271C142.467 191.805 141.333 192.271 140.267 192.738C139.733 193.005 139.133 193.205 138.6 193.405C138.067 193.605 137.467 193.871 136.933 194.071C136.4 194.271 135.8 194.538 135.267 194.738C135.267 194.738 135.267 194.738 135.2 194.738C134.667 194.938 134.067 195.138 133.533 195.338C132.333 195.738 131.067 196.138 129.867 196.538C129.467 196.671 129 196.805 128.6 196.938C127.333 197.338 126.067 197.671 124.8 197.938C124.333 198.071 123.867 198.138 123.333 198.271C122.133 198.538 120.867 198.805 119.667 199.071C119.4 199.138 119.2 199.138 118.933 199.205C118.533 199.271 118.067 199.338 117.667 199.405C117.067 199.471 116.533 199.605 115.933 199.671C115.667 199.738 115.4 199.738 115.133 199.805C114.8 199.871 114.4 199.938 114 199.938C112.933 200.071 111.8 200.205 110.733 200.338C110.4 200.405 110 200.405 109.667 200.471H109.6C109.133 200.538 108.667 200.538 108.2 200.605C107.733 200.671 107.267 200.671 106.8 200.671C106.533 200.671 106.2 200.738 105.933 200.738C105.4 200.738 104.933 200.805 104.467 200.805C103.8 200.805 103.2 200.871 102.533 200.871C101.867 200.871 101.267 200.871 100.6 200.871C100.133 200.871 99.6669 200.871 99.2 200.871C71.1333 200.471 45.8 188.538 27.8 169.605C27.8 169.605 27.8 169.538 27.7334 169.538C29.8 165.471 37.4667 158.138 45.4667 152.071C55.6 144.405 69.9333 139.671 69.9333 139.671C69.9333 139.671 79.3333 138.138 114.2 145.405C140.8 151.005 152.133 173.738 156 184.205Z" fill="#F7D3B5"/>
        <path d="M121.6 163.871C120.2 170.738 111.133 174.805 95.867 168.671C77.1334 161.071 69.9334 139.671 69.9334 139.671C68.9334 124.338 66.6001 111.205 66.6001 111.205C88.267 109.338 113.867 134.671 113.867 134.671L116.8 147.205C117.067 148.271 117.6 149.205 118.4 149.871C119.8 152.271 122.533 159.471 121.6 163.871Z" fill="#F7D3B5"/>
        <path d="M118.4 149.938C105.667 149.271 96.267 147.405 86.2001 129.338C94.7331 136.871 104.8 139.738 115.4 141.071L116.8 147.205C117.067 148.338 117.6 149.271 118.4 149.938Z" fill="#EFBDA5"/>
        <path d="M144.733 69.6048C145.933 75.2048 146.533 79.7381 143.267 94.6711C140 109.605 146.267 124.538 130.533 138.205C119.933 147.405 101.4 149.138 86.6001 139.071C81.6 135.671 77 130.938 73.2667 124.738C70.3334 119.871 66.9334 115.271 63.1334 111.071C57.8667 105.338 51.5334 93.805 54.6667 73.4048C59.7334 40.2048 92.6001 36.4048 112 40.0715C131.4 43.7381 141.467 54.8048 144.733 69.6048Z" fill="#F7D3B5"/>
        <path d="M80.9334 95.6711C80.9334 95.6711 78.8667 85.6711 69.1334 86.8711C60.7334 87.938 57.8001 108.071 76.8667 113.671" fill="#F7D3B5"/>
        <path d="M76.2666 104.538C76.2666 104.538 73.8666 103.005 74.1333 100.338C74.5333 97.205 74.1333 95.2711 72.6666 94.6711C68.9999 93.1381 68.2666 97.405 68.3999 97.9381" stroke="#423232" stroke-width="2" stroke-miterlimit="10" stroke-linecap="round" stroke-linejoin="round"/>
        <path d="M127.133 111.005C127.133 111.005 129.667 111.138 132.067 108.271C133.4 106.671 134.533 104.671 133.8 104.071C133.067 103.405 121 105.271 120.2 106.871C119.4 108.471 124.067 111.005 127.133 111.005Z" fill="#EFBDA5"/>
        <path d="M129.133 88.605C129.133 88.605 129.267 94.938 133.333 102.005C135.133 105.138 132.4 110.271 126.467 111.138" stroke="#423232" stroke-width="2" stroke-miterlimit="10" stroke-linecap="round" stroke-linejoin="round"/>
        <path opacity="0.42" d="M93 114.405C96.7925 114.405 99.8669 111.868 99.8669 108.738C99.8669 105.608 96.7925 103.071 93 103.071C89.2075 103.071 86.1331 105.608 86.1331 108.738C86.1331 111.868 89.2075 114.405 93 114.405Z" fill="#ED938A"/>
        <path opacity="0.42" d="M142.2 103.205C142 106.938 142.067 110.605 141.8 114.271C138.867 113.605 136.733 111.405 136.733 108.805C136.733 106.005 139.067 103.738 142.2 103.205Z" fill="#ED938A"/>
        <path d="M173.541 223.11H11.7437C11.7437 223.11 12.4477 193.29 22.432 172.235C29.7923 156.62 48.737 147.725 61.9215 143.182C64.8656 142.157 67.5537 141.39 69.7298 140.813C70.4338 142.734 77.538 161.548 94.5624 168.459C109.219 174.411 117.923 170.443 119.268 163.852C120.1 159.628 117.475 152.716 116.131 150.477C115.363 149.837 114.851 148.877 114.595 147.917L114.084 145.805C115.235 145.549 116.323 145.229 117.475 144.91C118.051 145.038 118.628 145.166 119.203 145.293C127.459 147.277 139.685 152.077 154.021 164.172C170.598 177.995 173.541 223.11 173.541 223.11Z" fill="#5A81FA"/>
        <path d="M121.572 181.259C119.331 181.898 111.523 173.771 109.923 172.363C108.451 174.027 98.0829 185.738 92.9624 184.97C87.3306 184.138 72.9298 174.474 65.6335 159.308C61.6014 150.989 61.4734 145.933 61.9214 143.182C62.1134 141.901 62.4974 141.069 62.6894 140.622C63.3295 139.15 67.9376 133.454 69.0896 133.518V133.582C69.6657 139.726 71.6497 145.677 74.9778 150.861C79.074 157.197 85.5381 164.812 94.5624 168.459C109.219 174.411 116.835 168.523 118.116 161.932C118.947 157.708 117.475 152.716 116.131 150.477C115.363 149.837 114.851 148.877 114.595 147.917L114.083 145.805C115.235 145.549 116.323 145.229 117.475 144.91C117.795 144.782 118.179 144.717 118.5 144.589C118.691 144.845 118.947 145.101 119.14 145.357C121.828 148.429 124.644 152.653 126.18 159.82C128.804 171.275 124.068 180.49 121.572 181.259Z" fill="#423232"/>
        <path d="M109.731 171.979C109.731 171.979 114.403 174.667 114.275 176.906C114.147 179.146 115.491 186.25 115.491 186.25" stroke="#423232" stroke-width="3" stroke-miterlimit="10" stroke-linecap="round" stroke-linejoin="round"/>
        <path d="M109.667 180.49C110.516 180.49 111.203 179.802 111.203 178.955C111.203 178.106 110.516 177.418 109.667 177.418C108.819 177.418 108.131 178.106 108.131 178.955C108.131 179.802 108.819 180.49 109.667 180.49Z" fill="#423232"/>
        <path d="M110.244 186.506C111.091 186.506 111.779 185.818 111.779 184.97C111.779 184.122 111.091 183.434 110.244 183.434C109.395 183.434 108.707 184.122 108.707 184.97C108.707 185.818 109.395 186.506 110.244 186.506Z" fill="#423232"/>
        <path d="M43.4248 223.11L40.5447 199.369" stroke="#544D4D" stroke-width="3" stroke-miterlimit="10" stroke-linecap="round" stroke-linejoin="round"/>
        <path d="M155.172 191.305C155.172 191.305 153.253 195.977 153.828 200.649C154.405 205.32 156.069 212.167 153.7 223.11" stroke="#544D4D" stroke-width="3" stroke-miterlimit="10" stroke-linecap="round" stroke-linejoin="round"/>
        <path d="M105.222 95.2987C103.622 95.2318 102.422 93.8987 102.556 92.2987L102.622 90.4318C102.689 88.8318 104.022 87.6318 105.622 87.7648C107.222 87.8318 108.422 89.1648 108.289 90.7648L108.222 92.6318C108.156 94.1648 106.822 95.3648 105.222 95.2987Z" fill="#423232"/>
        <path d="M133.289 96.2988C131.822 96.2318 130.689 94.9649 130.756 93.4988L130.822 91.7649C130.889 90.2988 132.156 89.1649 133.622 89.2318C135.089 89.2988 136.222 90.5649 136.156 92.0318L136.089 93.7649C136.022 95.2318 134.756 96.3649 133.289 96.2988Z" fill="#423232"/>
        <path d="M111.689 91.4318C111.689 91.4318 109.956 88.9649 106.956 88.4988C104.489 88.0988 101.756 89.2988 101.356 90.6988" stroke="#423232" stroke-width="2" stroke-miterlimit="10" stroke-linecap="round" stroke-linejoin="round"/>
        <path d="M131.356 92.0317C131.356 92.0317 131.356 89.8987 134.422 89.8987C136.956 89.8987 138.022 92.2317 138.022 92.2317" stroke="#423232" stroke-width="2" stroke-miterlimit="10" stroke-linecap="round" stroke-linejoin="round"/>
        <path d="M114.422 80.6983C115.822 81.165 117.222 79.8983 116.955 78.365C116.822 77.565 116.489 76.765 115.822 76.165C113.822 74.365 105.555 72.765 100.555 75.0983C96.1548 77.2317 108.022 78.565 114.422 80.6983Z" fill="#423232"/>
        <path d="M134.355 81.765C133.222 82.165 132.022 80.965 132.222 79.565C132.289 78.8317 132.555 78.0983 133.089 77.565C134.689 75.965 140.155 74.6983 143.622 77.165C146.622 79.2317 139.555 79.8317 134.355 81.765Z" fill="#423232"/>
        <path d="M115.534 116.929C115.571 117.531 115.12 118.583 114.293 119.335C110.044 116.741 108.127 118.095 108.127 118.095C106.623 115.801 106.962 112.68 110.608 115.049C113.165 116.666 114.706 116.929 115.534 116.929Z" fill="#423232"/>
        <path d="M114.293 119.336C113.391 120.125 112.037 120.613 110.195 119.862C109.33 119.523 108.654 118.846 108.127 118.095C108.127 118.095 110.044 116.741 114.293 119.336Z" fill="#FE9DAB"/>
        <path d="M116.248 116.778C116.248 116.778 114.669 117.644 110.608 115.049C105.758 111.929 106.736 118.47 110.157 119.861C113.729 121.328 115.571 118.132 115.534 116.929" stroke="#423232" stroke-width="2" stroke-miterlimit="10" stroke-linecap="round" stroke-linejoin="round"/>
        <path d="M108.4 117.153C108.4 117.153 110.317 115.799 114.566 118.394" stroke="#423232" stroke-width="2" stroke-miterlimit="10" stroke-linecap="round" stroke-linejoin="round"/>
        <path d="M149.878 53.5119C145.145 70.6452 131.411 67.7785 118.545 63.1119C101.411 56.8452 86.3449 61.9118 86.2779 77.3785C86.1449 100.045 80.4779 93.1782 79.8779 92.3121C78.4112 89.5121 75.2779 86.0452 69.3445 86.7782C61.5445 87.7782 58.4779 104.978 73.0112 112.045C75.5445 124.912 68.6112 123.712 68.6112 123.712C66.2779 114.245 46.6779 94.1121 46.6112 80.8452C46.6112 62.9785 55.6112 57.9118 55.6112 57.9118C55.8779 45.4452 68.8779 31.7119 90.7449 32.1785C112.611 32.5785 126.011 31.9785 130.278 26.8452C134.545 21.5785 154.611 36.3785 149.878 53.5119Z" fill="#423232"/>
        <path d="M150.411 74.1118C149.745 78.4451 147.878 81.7785 145.278 84.2452C146.278 76.9785 145.745 73.5118 144.878 69.4451C143.011 61.1118 139.011 53.9118 132.345 48.5785C135.678 48.3118 139.078 49.0451 142.145 50.9785C142.145 50.9118 153.145 55.3785 150.411 74.1118Z" fill="#423232"/>
        <path d="M115.574 101.531H100.393C96.4193 101.531 93.2268 98.3397 93.2268 94.3665V88.1782C93.2268 84.2042 96.4193 81.0127 100.393 81.0127H115.574C119.548 81.0127 122.741 84.2042 122.741 88.1782V94.3665C122.741 98.3397 119.483 101.531 115.574 101.531Z" stroke="#423232" stroke-width="2" stroke-miterlimit="10" stroke-linecap="round" stroke-linejoin="round"/>
        <path d="M141.765 81.0127H134.273C131.666 81.0127 129.516 83.1623 129.516 85.7682V91.4351C130.428 94.692 131.731 97.8184 133.686 100.619C133.881 100.619 134.077 100.684 134.273 100.684H141.765C144.371 100.684 146.521 98.5347 146.521 95.9297V85.7682C146.587 83.0971 144.436 81.0127 141.765 81.0127Z" stroke="#423232" stroke-width="2" stroke-miterlimit="10" stroke-linecap="round" stroke-linejoin="round"/>
        <path d="M122.741 86.9406C124.956 86.6795 127.757 86.4845 130.103 86.7447" stroke="#423232" stroke-width="2" stroke-miterlimit="10" stroke-linecap="round" stroke-linejoin="round"/>
        <path d="M93.2269 87.3966L78.1112 87.9171" stroke="#423232" stroke-width="2" stroke-miterlimit="10" stroke-linecap="round" stroke-linejoin="round"/>
    </g>
</svg>
