<svg width="200" height="200" viewBox="0 0 200 200" fill="none" xmlns="http://www.w3.org/2000/svg">
    <rect width="200" height="200" rx="30" fill="#FDFDFD"/>
    <g clip-path="url(#clip0_940_6)">
        <path d="M118.184 30H126.611L133.506 31.1526L139.251 33.0736L146.529 36.9155L150.36 39.9891L153.041 42.2943L157.254 47.673L160.319 53.436L162.234 59.1989L163 64.1935V69.5722L161.851 75.3352L159.936 80.3297L157.254 85.3243L153.041 90.703L150.36 93.7766L149.594 95.3134V99.1553L152.275 102.229L156.105 106.455L159.17 111.45L161.851 117.981L163 124.128V130.275L161.468 137.191L158.787 143.338L156.105 147.564L152.275 151.79L149.977 154.864L149.594 155.632V159.474L151.126 162.932L154.19 166.774L158.404 170.616L157.637 171L151.126 169.079L143.465 166.005L136.953 162.163L133.123 162.548L125.462 163.7H120.482L112.439 162.548L106.31 160.627L100.181 157.553L95.9678 154.48L91.3713 150.253L87.1579 144.49L84.4766 138.728L82.5614 132.58L76.8158 133.349H67.2398L59.962 131.812H58.0468L51.5351 135.654L44.2573 138.728L38.5117 140.264H36.5965L38.5117 138.343L41.576 135.654L44.6404 131.428L45.4064 129.507V125.281L43.1082 122.207L39.6608 118.365L36.2134 112.986L34.2982 109.144L32.7661 104.15L32 99.5395V94.9292L32.7661 89.5504L34.6813 83.4033L38.1287 77.2561L41.576 73.03L44.6404 69.9564L50.0029 66.1144L55.3655 63.4251L61.1111 61.5041L66.4737 60.3515L69.538 59.9673H74.5175L80.2632 60.7357L82.5614 61.1199L84.4766 54.9728L86.3918 50.3624L89.0731 46.1362L93.6696 41.1417L97.5 37.6839L103.246 34.2262L108.991 31.921L115.503 30.3842L118.184 30ZM117.418 34.9946L111.673 36.1471L105.544 38.4523L99.4152 42.2943L93.6696 48.0572L90.9883 52.2834L89.0731 56.5095L87.5409 61.5041V63.0409L93.6696 66.1144L97.883 68.8038L101.713 72.2616L104.395 74.951L107.842 80.3297L110.14 85.3243L112.056 91.4714L118.567 90.703H126.228L133.123 91.8556L139.635 94.1608L144.231 96.0817L145.763 91.8556L148.061 88.782L151.892 84.5559L154.956 79.5613L157.254 73.7984L158.02 69.5722V63.8093L156.871 58.0463L154.956 53.436L152.658 49.594L149.211 45.3678L145.763 42.2943L140.784 39.2207L136.187 36.9155L130.059 35.3787L127.76 34.9946H117.418ZM70.3041 64.9619L64.1754 65.7302L57.6637 67.6512L51.152 71.109L46.9386 74.5668L43.4912 78.0245L40.8099 82.2507L38.5117 86.861L37.3626 91.4714L36.9795 94.1608V99.5395L38.1287 105.302L40.0439 109.913L42.3421 113.755L46.5556 118.749L49.6199 122.976L50.386 124.896L50.769 130.275L52.6842 129.507L56.5146 127.202L59.962 126.817L67.2398 128.354L72.9854 128.738L81.0292 127.586L87.1579 125.665L92.5205 122.976L97.5 119.133L100.564 116.06L104.012 111.065L106.693 104.534L107.842 98.3869L107.459 92.2398L105.544 85.7084L103.246 81.0981L100.564 77.6403L98.2661 74.951L93.2865 71.109L87.5409 68.0354L81.7953 66.1144L77.9649 65.3461L74.1345 64.9619H70.3041ZM118.95 95.3134L112.822 96.4659L112.439 97.2343L111.673 103.382L109.374 110.297L106.31 116.06L102.096 121.054L98.2661 124.512L92.1374 128.354L87.5409 130.659L87.924 133.733L90.2222 139.88L93.2865 144.875L96.7339 148.717L100.181 151.79L105.927 155.248L110.906 157.169L118.567 158.706H126.228L134.655 157.169L138.102 157.553L144.231 160.627L144.614 155.248L146.146 151.79L149.211 147.948L152.275 144.49L155.339 139.112L157.254 134.117L158.02 129.891V124.512L156.871 118.365L153.424 111.065L150.36 107.223L146.912 103.766L141.167 99.9237L135.038 97.2343L129.292 95.6975L126.228 95.3134H118.95Z" fill="#5CADCF"/>
    </g>
    <defs>
        <clipPath id="clip0_940_6">
            <rect width="131" height="141" fill="white" transform="translate(32 30)"/>
        </clipPath>
    </defs>
</svg>
